<svg id="Layer_1" data-name="Layer 1" xmlns="http://www.w3.org/2000/svg" viewBox="0 0 1920.08 370.35"><defs><style>.cls-1{fill:#333;}</style></defs><title>Wordmark</title><g id="ACCENT"><path class="cls-1" d="M165.15,30.07V236.18c0,42-18.66,60.1-48.69,60.1-25.38,0-45.59-13.47-66.31-36.27L-.08,316c24.84,29.53,62.15,54.39,118.6,54.39,39.37,0,72-11.4,94.28-33.67C234.54,314.92,247,282.81,247,239.8V2.58H197.06A32.26,32.26,0,0,0,165.15,30.07Z" transform="translate(0.08)"/><path class="cls-1" d="M788.88,177.33,742.44,25.58a5.43,5.43,0,0,0-.17-.61A32.28,32.28,0,0,0,711.55,2.58H649.94l59.25,174.75Z" transform="translate(0.08)"/><path class="cls-1" d="M1338.83,110.8h-79.75V365.17h47.51c.59,0,1.2,0,1.78-.07a32.2,32.2,0,0,0,27.12-17.9,31.49,31.49,0,0,0,1.8-4.42,32.25,32.25,0,0,0,1.54-9.87V224.78h142.56a32.18,32.18,0,0,0,27.11-17.91,29.44,29.44,0,0,0,1.8-4.42,32.14,32.14,0,0,0,1.54-9.86V152.27h-173Z" transform="translate(0.08)"/><path class="cls-1" d="M1829.34,2.58l-88,145.55L1654.79,2.58h-93.24L1700.9,222.2v143h47.76c.58,0,1.19,0,1.77-.07a32.2,32.2,0,0,0,27.12-17.9,31.49,31.49,0,0,0,1.8-4.42,33.36,33.36,0,0,0,1.3-5.9V220.64L1920,2.58Z" transform="translate(0.08)"/><path class="cls-1" d="M1259.08,2.58H1140.52A32.28,32.28,0,0,0,1109.8,25a3.06,3.06,0,0,0-.17.56l-68.1,222.55L969,28.16l-2.88-8.74A32.26,32.26,0,0,0,937.26,1.54h-22.5A32.39,32.39,0,0,0,886.08,19l-3.16,9.6L810.53,248.11,799.91,213.4H604l-80.86-190-.46-1-1.82-4.25L520,16s0,0,0-.07A32.2,32.2,0,0,0,492.19,0h-31.5A32.41,32.41,0,0,0,433,15.61s0,0,0,.06l-3.33,7.85L284.27,365.17H344a32.23,32.23,0,0,0,28.89-18l1.8-4.42L398,285.55H552.76l22.93,56.25,2.6,6.4s0,.06.05.08a32.2,32.2,0,0,0,28.35,16.89H668.6l-33.87-79.62H745.87l27.87,82.2h46.85a32.18,32.18,0,0,0,28.53-17.28l3.21-9.3L925,130.52,998.2,342.71l2.23,6.53a.06.06,0,0,1,0,0c.24.5.5,1,.76,1.49a.09.09,0,0,0,0,.09,32.2,32.2,0,0,0,28.35,16.89h46.63l99.35-293h327.32a32.23,32.23,0,0,0,32.24-32.25V2.58H1259.08ZM475.41,95.82,523.58,213.4H427.24Z" transform="translate(0.08)"/></g></svg>