<svg xmlns="http://www.w3.org/2000/svg" viewBox="0 0 812.54 156.74"><defs><style>.cls-1{fill:#fff;}</style></defs><g id="Layer_2" data-name="Layer 2"><g id="Layer_1-2" data-name="Layer 1"><g id="ACCENT"><path class="cls-1" d="M69.92,12.72V100c0,17.77-7.89,25.43-20.6,25.43-10.74,0-19.3-5.7-28.06-15.35L0,133.72c10.51,12.5,26.3,23,50.19,23,16.66,0,30.47-4.82,39.9-14.25,9.2-9.22,14.47-22.81,14.47-41V1.09H83.43A13.66,13.66,0,0,0,69.92,12.72Z"/><path class="cls-1" d="M333.87,75,314.22,10.82a2.33,2.33,0,0,0-.07-.25,13.66,13.66,0,0,0-13-9.48H275.07l25.08,74Z"/><path class="cls-1" d="M566.6,46.89H532.85V154.53H553a6.44,6.44,0,0,0,.76,0,13.61,13.61,0,0,0,11.47-7.57,14.42,14.42,0,0,0,.77-1.87,13.77,13.77,0,0,0,.65-4.18V95.12h60.33a13.62,13.62,0,0,0,11.47-7.58,12.21,12.21,0,0,0,.76-1.87,13.71,13.71,0,0,0,.65-4.17V64.44H566.6Z"/><path class="cls-1" d="M774.17,1.09l-37.24,61.6L700.3,1.09H660.85l59,92.94v60.51H740a6.35,6.35,0,0,0,.75,0,13.59,13.59,0,0,0,11.47-7.57,13.87,13.87,0,0,0,.77-1.87,15.06,15.06,0,0,0,.55-2.5V93.37l59-92.28Z"/><path class="cls-1" d="M532.85,1.09H482.68a13.65,13.65,0,0,0-13,9.49,2.25,2.25,0,0,0-.08.24L440.79,105l-30.7-93.07-1.22-3.7A13.62,13.62,0,0,0,396.66.65h-9.52A13.72,13.72,0,0,0,375,8l-1.33,4.06L343,105l-4.49-14.68H255.63L221.42,9.9l-.2-.42-.77-1.8-.36-.91v0A13.64,13.64,0,0,0,208.32,0H195a13.71,13.71,0,0,0-11.72,6.61v0L181.86,10,120.33,154.53h25.28a13.62,13.62,0,0,0,12.22-7.62l.76-1.87,9.87-24.2H234l9.7,23.8,1.1,2.71s0,0,0,0a13.62,13.62,0,0,0,12,7.15H283l-14.33-33.69h47l11.79,34.78h19.83a13.61,13.61,0,0,0,12.07-7.31l1.36-3.93,30.75-89.15,31,89.8.94,2.76h0l.33.63a0,0,0,0,0,0,0,13.61,13.61,0,0,0,12,7.15h19.74l42-124H636A13.65,13.65,0,0,0,649.65,18h0V1.09ZM201.22,40.55,221.6,90.31H180.83Z"/></g></g></g></svg>