<svg xmlns="http://www.w3.org/2000/svg" viewBox="0 0 336.06 120.21"><defs><style>.cls-1{fill:#fff;}</style></defs><g id="Layer_2" data-name="Layer 2"><g id="Layer_1-2" data-name="Layer 1"><polygon class="cls-1" points="63.49 0 10.3 11.58 0 69.98 38.21 61.66 36.92 62.38 11.95 76.38 4.23 120.21 32.59 86.95 63.47 50.72 54.19 52.72 63.49 0"/><path class="cls-1" d="M120.5,16.06v25.5q0,5.85-3.19,9t-8.84,3.17q-6.12,0-9.71-3.46t-3.59-9.95h8.92q0,5.23,4,5.23c2.28,0,3.43-1.34,3.43-4V16.06Z"/><path class="cls-1" d="M144,25.09a9.29,9.29,0,0,1,3.59,4.17V23.93h9V53.38h-9V48.05A9.29,9.29,0,0,1,144,52.22a10.69,10.69,0,0,1-5.81,1.53,12,12,0,0,1-6.52-1.82,12.41,12.41,0,0,1-4.54-5.25,18.19,18.19,0,0,1-1.66-8,18.16,18.16,0,0,1,1.66-8,12.44,12.44,0,0,1,4.54-5.22,11.88,11.88,0,0,1,6.52-1.82A10.69,10.69,0,0,1,144,25.09Zm-7.58,8.29a7.42,7.42,0,0,0-1.77,5.27,7.42,7.42,0,0,0,1.77,5.28,6.63,6.63,0,0,0,9.34,0,7.33,7.33,0,0,0,1.83-5.23,7.33,7.33,0,0,0-1.83-5.25,6.15,6.15,0,0,0-4.67-1.93A6.08,6.08,0,0,0,136.42,33.38Z"/><path class="cls-1" d="M186.17,26.7A13.92,13.92,0,0,1,191,35.33h-9.56a5,5,0,0,0-1.74-3,5.17,5.17,0,0,0-3.32-1,4.82,4.82,0,0,0-3.91,1.87A8.46,8.46,0,0,0,171,38.65a8.47,8.47,0,0,0,1.53,5.47A4.82,4.82,0,0,0,176.41,46a5.17,5.17,0,0,0,3.32-1.05,5,5,0,0,0,1.74-3H191a13.92,13.92,0,0,1-4.86,8.63,14.59,14.59,0,0,1-9.55,3.14,15.85,15.85,0,0,1-7.68-1.82,12.89,12.89,0,0,1-5.25-5.25,16.28,16.28,0,0,1-1.91-8,16.46,16.46,0,0,1,1.88-8,12.81,12.81,0,0,1,5.25-5.22,15.91,15.91,0,0,1,7.71-1.82A14.59,14.59,0,0,1,186.17,26.7Z"/><path class="cls-1" d="M214.1,53.38l-8.82-12.51V53.38h-9V14.32h9V35.75l8.82-11.82h10.61L212.83,38.65,225,53.38Z"/><path class="cls-1" d="M104.17,68V75.8h12.61v6.81H104.17V90.9h14.2v7.23H95.14V60.81h23.23V68Z"/><path class="cls-1" d="M141,69.84A9.17,9.17,0,0,1,144.6,74V68.68h9V98.13h-9V92.8A9.17,9.17,0,0,1,141,97a10.65,10.65,0,0,1-5.8,1.53,11.88,11.88,0,0,1-6.52-1.82,12.41,12.41,0,0,1-4.54-5.25,18.18,18.18,0,0,1-1.66-8,18.13,18.13,0,0,1,1.66-8,12.47,12.47,0,0,1,4.54-5.23,12,12,0,0,1,6.52-1.82A10.65,10.65,0,0,1,141,69.84Zm-7.57,8.29a7.42,7.42,0,0,0-1.77,5.28,7.42,7.42,0,0,0,1.77,5.27,6.63,6.63,0,0,0,9.34-.05,8.45,8.45,0,0,0,0-10.48,6.14,6.14,0,0,0-4.67-1.92A6.06,6.06,0,0,0,133.44,78.13Z"/><path class="cls-1" d="M173.72,70a11.05,11.05,0,0,1,5.78-1.59V78h-2.59a8.93,8.93,0,0,0-5.57,1.53q-2,1.53-2,5.18v13.4h-9V68.68h9v5.54A12.81,12.81,0,0,1,173.72,70Z"/><path class="cls-1" d="M203.49,71.11a12.12,12.12,0,0,1,4.19,7.39h-8.44a4.72,4.72,0,0,0-1.66-2.83,5.12,5.12,0,0,0-3.25-1,3.53,3.53,0,0,0-2.32.66,2.31,2.31,0,0,0-.8,1.88,2.21,2.21,0,0,0,1.46,2.06,23.77,23.77,0,0,0,4.56,1.37,45.58,45.58,0,0,1,5.55,1.61,9.05,9.05,0,0,1,3.74,2.66,7.38,7.38,0,0,1,1.59,5,7.58,7.58,0,0,1-1.38,4.48,8.88,8.88,0,0,1-3.95,3.06,15.5,15.5,0,0,1-6.13,1.11q-6,0-9.55-2.64a11.07,11.07,0,0,1-4.38-7.54h8.71a3.9,3.9,0,0,0,1.61,2.9,6,6,0,0,0,3.61,1,3.37,3.37,0,0,0,2.32-.71,2.41,2.41,0,0,0,.8-1.88,2.26,2.26,0,0,0-1.46-2.19,27.06,27.06,0,0,0-4.72-1.4,37.65,37.65,0,0,1-5.38-1.47A8.9,8.9,0,0,1,184.56,82,7.14,7.14,0,0,1,183,77.18a7.89,7.89,0,0,1,3-6.42q3-2.45,8.5-2.45T203.49,71.11Z"/><path class="cls-1" d="M260.37,71.71q3.11,3.36,3.11,9.32v17.1h-9v-16A6,6,0,0,0,253,77.73a5.4,5.4,0,0,0-4.09-1.56,5.55,5.55,0,0,0-4.25,1.67,6.55,6.55,0,0,0-1.55,4.67V98.13h-9v-16a6.11,6.11,0,0,0-1.48-4.36,5.33,5.33,0,0,0-4.06-1.56,5.69,5.69,0,0,0-4.28,1.64,6.47,6.47,0,0,0-1.58,4.7V98.13h-9V68.68h9v5a8.77,8.77,0,0,1,3.56-3.9,10.8,10.8,0,0,1,5.62-1.43,11.36,11.36,0,0,1,6,1.56,9.78,9.78,0,0,1,3.9,4.46,11.77,11.77,0,0,1,4.2-4.38,12.09,12.09,0,0,1,14.44,1.71Z"/><path class="cls-1" d="M287,69.84A9.2,9.2,0,0,1,290.61,74V68.68h9V98.13h-9V92.8A9.2,9.2,0,0,1,287,97a10.69,10.69,0,0,1-5.81,1.53,11.88,11.88,0,0,1-6.52-1.82,12.41,12.41,0,0,1-4.54-5.25,18.18,18.18,0,0,1-1.66-8,18.13,18.13,0,0,1,1.66-8,12.47,12.47,0,0,1,4.54-5.23,12,12,0,0,1,6.52-1.82A10.69,10.69,0,0,1,287,69.84Zm-7.58,8.29a7.42,7.42,0,0,0-1.77,5.28,7.42,7.42,0,0,0,1.77,5.27,6.63,6.63,0,0,0,9.34-.05,8.45,8.45,0,0,0,0-10.48,6.14,6.14,0,0,0-4.67-1.92A6.08,6.08,0,0,0,279.45,78.13Z"/><path class="cls-1" d="M333.08,71.74q3,3.38,3,9.29v17.1h-9v-16a6.48,6.48,0,0,0-1.56-4.62,5.41,5.41,0,0,0-4.14-1.67A5.62,5.62,0,0,0,317,77.55a7,7,0,0,0-1.61,5V98.13h-9V68.68h9v5.38a9.7,9.7,0,0,1,3.78-4.17A11.06,11.06,0,0,1,325,68.36,10.2,10.2,0,0,1,333.08,71.74Z"/></g></g></svg>