<svg width="27" height="18" viewBox="0 0 27 18" fill="none" xmlns="http://www.w3.org/2000/svg">
<path d="M7.96919 0.644531C8.70426 0.644531 9.38353 0.701647 10.007 0.872996C10.6289 0.987228 11.1407 1.22548 11.5951 1.51106C12.0512 1.79828 12.3876 2.20625 12.6172 2.73008C12.8405 3.25229 12.9616 3.89035 12.9616 4.58554C12.9616 5.39495 12.7926 6.09014 12.394 6.61234C12.0512 7.13455 11.4915 7.60126 10.8042 7.94559C11.7705 8.23281 12.5056 8.75501 12.9537 9.45019C13.4017 10.1454 13.6887 11.0119 13.6887 12.0008C13.6887 12.8102 13.5213 13.5054 13.2343 14.0864C12.948 14.6711 12.5184 15.1699 11.9874 15.5339C11.4771 15.8847 10.8537 16.1703 10.1744 16.3433C9.50902 16.5231 8.82474 16.6196 8.13661 16.6305L0.548279 16.6419V0.644531H7.96919ZM7.51475 7.13618C8.13661 7.13618 8.64686 6.96483 9.04071 6.67109C9.43296 6.37735 9.60676 5.86004 9.60676 5.22361C9.60676 4.87112 9.55095 4.52842 9.43934 4.29833C9.31852 4.06512 9.14324 3.86611 8.92909 3.71901C8.69778 3.58992 8.45053 3.49332 8.19402 3.43179C7.91338 3.37468 7.62637 3.37468 7.28992 3.37468H4.00839V7.14434C4.00839 7.13618 7.51634 7.13618 7.51634 7.13618H7.51475ZM7.68217 13.9787C8.025 13.9787 8.36144 13.9216 8.64845 13.8644C8.92909 13.8073 9.21611 13.6915 9.43934 13.512C9.66257 13.3325 9.83797 13.1611 10.007 12.8755C10.1186 12.5883 10.2302 12.2375 10.2302 11.8295C10.2302 11.0201 10.007 10.4391 9.55095 10.0311C9.09652 9.68029 8.47306 9.50894 7.73798 9.50894H4.00839V13.9705H7.68377V13.9787H7.68217ZM18.6174 13.9216C19.0734 14.3867 19.7511 14.6167 20.6552 14.6167C21.2771 14.6167 21.8447 14.4438 22.3008 14.15C22.7552 13.7992 23.0342 13.4548 23.1459 13.1056H25.9203C25.4643 14.4944 24.785 15.4833 23.8825 16.1213C22.98 16.7007 21.9005 17.045 20.5978 17.045C19.7648 17.0488 18.9386 16.891 18.163 16.5799C17.4649 16.3143 16.842 15.8759 16.35 15.3038C15.8252 14.7703 15.4355 14.1138 15.2147 13.3912C14.9357 12.6389 14.8161 11.8295 14.8161 10.8977C14.8161 10.0311 14.9277 9.21357 15.2147 8.46127C15.5017 7.7106 15.894 7.0709 16.4058 6.49158C16.9161 5.96938 17.5395 5.50266 18.2188 5.21545C18.9762 4.90682 19.7842 4.74897 20.5994 4.75036C21.5657 4.75036 22.4124 4.92171 23.1475 5.32968C23.8809 5.73765 24.4502 6.19784 24.9046 6.89303C25.3591 7.52946 25.6955 8.28176 25.9267 9.09281C26.0383 9.90223 26.0941 10.7182 26.0383 11.6434H17.8265C17.8265 12.5899 18.1614 13.4548 18.6174 13.9216ZM22.1891 7.83136C21.7905 7.42339 21.1655 7.19329 20.4304 7.19329C19.9201 7.19329 19.5279 7.30753 19.1851 7.48051C18.8422 7.65185 18.6174 7.88848 18.3942 8.11694C18.1858 8.34093 18.047 8.6232 17.9955 8.92799C17.9381 9.21357 17.8839 9.45019 17.8839 9.67866H22.98C22.8684 8.82028 22.5814 8.23933 22.1875 7.83136H22.1891ZM17.2031 1.74769H23.5461V3.3094H17.2031V1.74769Z" fill="#6D7082"/>
</svg>
