<svg xmlns="http://www.w3.org/2000/svg" viewBox="0 0 20 12.59"><g id="Layer_2" data-name="Layer 2"><g id="Social"><path id="behance" d="M5.92,0c2.37,0,4,.76,4,3.12A2.68,2.68,0,0,1,8.23,5.75a3,3,0,0,1,2.31,3.19c0,2.47-2,3.65-4.44,3.65H0V0ZM5.57,5.1c1,0,1.69-.46,1.69-1.5s-.8-1.45-1.9-1.45H2.77V5.1Zm.16,5.34c1.2,0,2-.45,2-1.66S7,7,5.78,7h-3v3.46Zm9.92.28a2,2,0,0,0,2-1.18h2.21a4,4,0,0,1-4.27,3.05,4.43,4.43,0,0,1-4.65-4.78c0-6.42,9.55-6.64,9.07.6H13.41C13.47,9.88,14.1,10.72,15.65,10.72Zm-.16-5.84a2,2,0,0,0-2.08,1.94h4.07C17.2,5.33,16.52,4.88,15.49,4.88ZM13,.64h5.09V2.05H13Z"/></g></g></svg>