<svg width="25" height="24" viewBox="0 0 25 24" fill="none" xmlns="http://www.w3.org/2000/svg">
<path fill-rule="evenodd" clip-rule="evenodd" d="M12.586 0C6.04766 0 0.74118 5.30648 0.74118 11.8448C0.74118 18.3832 6.04766 23.6897 12.586 23.6897C19.1125 23.6897 24.4308 18.3832 24.4308 11.8448C24.4308 5.30648 19.1125 0 12.586 0ZM20.4095 5.46047C21.8677 7.23611 22.6748 9.45698 22.6971 11.7545C22.3624 11.6908 19.0222 11.0098 15.6568 11.4332C15.5798 11.2674 15.5146 11.0868 15.4376 10.9076C15.2318 10.419 15.0009 9.91856 14.7699 9.44181C18.4951 7.92715 20.1919 5.74326 20.411 5.45898L20.4095 5.46047ZM12.586 1.74711C15.1549 1.74711 17.5061 2.7095 19.2931 4.29079C19.1125 4.54841 17.583 6.59017 13.9867 7.939C12.3284 4.89488 10.4924 2.40154 10.2096 2.01658C10.9886 1.8347 11.7861 1.74427 12.586 1.74711ZM8.28189 2.69766C9.63765 4.57661 10.8901 6.52798 12.0337 8.54308C7.30618 9.80159 3.13087 9.77642 2.68077 9.77642C3.00629 8.24508 3.68115 6.80962 4.65271 5.582C5.62428 4.35437 6.86629 3.36778 8.28189 2.69914V2.69766ZM2.46312 11.8596V11.5487C2.8999 11.5635 7.8081 11.6272 12.857 10.111C13.1516 10.6752 13.4211 11.2541 13.6787 11.8315L13.2789 11.947C8.06425 13.6304 5.28959 18.2292 5.05714 18.6156C3.38675 16.7613 2.46261 14.3539 2.46312 11.8582V11.8596ZM12.586 21.9677C10.3378 21.9712 8.15336 21.2205 6.38228 19.8356C6.55995 19.4625 8.61651 15.5064 14.3198 13.5149C14.3464 13.5016 14.3583 13.5016 14.3849 13.4898C15.3465 15.9718 16.0688 18.54 16.5422 21.1593C15.2925 21.6963 13.9461 21.9714 12.586 21.9677ZM18.2271 20.2339C18.1235 19.6165 17.583 16.6627 16.2609 13.0264C19.4338 12.5259 22.2085 13.3476 22.5549 13.4631C22.3391 14.8292 21.8431 16.1359 21.0981 17.3011C20.353 18.4663 19.3751 19.4648 18.2256 20.2339H18.2271Z" fill="#6D7082"/>
</svg>
