<svg xmlns="http://www.w3.org/2000/svg" viewBox="0 0 20 20.03"><g id="Layer_2" data-name="Layer 2"><g id="Social"><path id="dribbble" d="M0,10a10,10,0,1,1,5,8.66A10,10,0,0,1,0,10Zm3.76,5.5a12.18,12.18,0,0,1,7.1-5.72c-.2-.46-.39-.88-.58-1.26a25,25,0,0,1-8.6,1.08A8,8,0,0,0,3.76,15.52ZM1.92,8A22.07,22.07,0,0,0,9.56,7.1,20.25,20.25,0,0,0,6.22,2.6,8.5,8.5,0,0,0,1.92,8Zm3,8.64a8.12,8.12,0,0,0,8,1.2,29.82,29.82,0,0,0-1.56-6.62C8.78,11.75,6,14.36,4.9,16.6ZM8,2A21.63,21.63,0,0,1,11.22,6.5a9.92,9.92,0,0,0,4.1-2.9A8.15,8.15,0,0,0,8,2Zm4,6c.2.43.43,1,.68,1.62a41.4,41.4,0,0,1,5.68-.08,8.07,8.07,0,0,0-2-4.84A9.8,9.8,0,0,1,11.94,7.92Zm1.18,3A28.8,28.8,0,0,1,14.5,17a8.32,8.32,0,0,0,3.78-6.08A35.5,35.5,0,0,0,13.12,10.94Z"/></g></g></svg>