<svg width="114" height="48" viewBox="0 0 114 48" fill="none" xmlns="http://www.w3.org/2000/svg">
<path d="M27.2059 19.4192L21.2771 20.7184L24.9279 0L9.28516 3.40398C7.73509 3.74241 6.32069 4.53417 5.22178 5.67857C4.12288 6.82297 3.38912 8.26832 3.11382 9.83084L0 27.4787L15.0018 24.209L14.4951 24.4948L7.99892 28.15C6.96559 28.7292 6.07397 29.531 5.38863 30.4972C4.70328 31.4634 4.24135 32.5699 4.03627 33.7367L1.66301 47.2053L27.2059 19.4192Z" fill="#2F8FFF"/>
<path d="M38.8778 16.9959C38.8635 17.2479 38.9022 17.5002 38.9914 17.7364C39.0806 17.9725 39.2183 18.1874 39.3957 18.367C39.5731 18.5467 39.7861 18.6872 40.0212 18.7794C40.2562 18.8716 40.5079 18.9135 40.7601 18.9023C41.9975 18.9023 42.6626 18.1365 42.6626 16.7137V7H45.6251V16.7339C45.6251 19.7447 43.8234 21.4618 40.7883 21.4618C37.8944 21.4618 36 19.7044 36 16.9959H38.8778Z" fill="#484953"/>
<path d="M47.2334 18.1446C47.2334 16.2301 48.7046 15.1257 51.3204 14.9685L53.9726 14.8113V14.114C53.9726 13.1305 53.2833 12.5622 52.2072 12.5622C51.131 12.5622 50.4579 13.0943 50.3168 13.852H47.6969C47.8057 11.8125 49.5429 10.4099 52.3281 10.4099C55.0286 10.4099 56.7819 11.8004 56.7819 13.9205V21.1675H54.0169V19.5553H53.9443C53.6139 20.1116 53.1406 20.5694 52.5737 20.8813C52.0067 21.1931 51.3667 21.3476 50.7199 21.3288C48.7529 21.3328 47.2334 20.039 47.2334 18.1446ZM53.9726 17.3103V16.5444L51.7557 16.6855C50.6836 16.7621 50.075 17.2417 50.075 17.9874C50.075 18.7331 50.7239 19.2651 51.6872 19.2651C52.9407 19.2651 53.9726 18.4509 53.9726 17.3103Z" fill="#484953"/>
<path d="M65.4233 14.5654C65.258 13.457 64.5204 12.671 63.3435 12.671C61.9288 12.671 61.0461 13.8802 61.0461 15.8955C61.0461 17.9108 61.9288 19.1401 63.3516 19.1401C63.868 19.1657 64.374 18.9881 64.7612 18.6454C65.1484 18.3026 65.386 17.822 65.4233 17.3062H68.0916C67.9424 19.7891 66.0763 21.3892 63.3234 21.3892C60.1553 21.3892 58.144 19.3296 58.144 15.8955C58.144 12.5219 60.1593 10.422 63.3032 10.422C66.1488 10.422 67.9545 12.1753 68.0835 14.5614L65.4233 14.5654Z" fill="#484953"/>
<path d="M75.9634 10.6517H79.208L75.1774 15.162L79.3853 21.1675H76.1125L73.1016 16.8911L72.356 17.6972V21.1716H69.4902V7H72.356V14.8677H72.3963L75.9634 10.6517Z" fill="#484953"/>
<path d="M45.3833 39.1843H36.0042V25.0248H45.3833V27.4674H38.9666V30.8813H45.0125V33.1586H38.9666V36.7297H45.3833V39.1843Z" fill="#484953"/>
<path d="M46.6448 36.1613C46.6448 34.2468 48.1159 33.1384 50.7358 32.9812L53.3839 32.824V32.1307C53.3839 31.1473 52.6987 30.579 51.6185 30.579C50.5383 30.579 49.8733 31.107 49.7362 31.8849H47.1164C47.2252 29.8414 48.9624 28.4387 51.7475 28.4387C54.444 28.4387 56.1812 29.8333 56.1812 31.9534V39.1843H53.4162V37.572H53.3557C53.0258 38.1291 52.5528 38.5877 51.9858 38.9003C51.4187 39.2129 50.7784 39.368 50.1312 39.3495C48.1683 39.3495 46.6448 38.0557 46.6448 36.1613ZM53.3839 35.327V34.5612L51.1671 34.6982C50.099 34.7788 49.4904 35.2585 49.4904 36.0041C49.4904 36.7498 50.1393 37.2778 51.1026 37.2778C52.3561 37.2778 53.3839 36.4636 53.3839 35.327Z" fill="#484953"/>
<path d="M58.0272 28.6644H60.7962V30.5588H60.8567C61.2315 29.2247 62.1223 28.4992 63.3597 28.4992C63.6322 28.4968 63.9037 28.5335 64.1658 28.608V31.1271C63.8316 31.0112 63.4796 30.9552 63.1259 30.9619C61.7112 30.9619 60.8889 31.8244 60.8889 33.3077V39.1843H58.0232L58.0272 28.6644Z" fill="#484953"/>
<path d="M69.5306 28.4387C72.1666 28.4387 73.8837 29.7728 73.924 31.8164H71.2759C71.2194 30.9699 70.5423 30.45 69.4822 30.45C68.4907 30.45 67.8418 30.9014 67.8418 31.5786C67.8418 32.0985 68.2932 32.4532 69.2162 32.6668L71.2315 33.1021C73.3395 33.5697 74.194 34.404 74.194 35.9759C74.194 38.0436 72.2916 39.41 69.5145 39.41C66.7374 39.41 64.9881 38.0557 64.8269 36.0203H67.6201C67.7571 36.903 68.4544 37.4149 69.5951 37.4149C70.7358 37.4149 71.3403 36.9836 71.3403 36.2943C71.3403 35.7663 70.9857 35.4882 70.0465 35.2464L68.1078 34.8111C66.1167 34.3597 65.0929 33.3198 65.0929 31.768C65.0929 29.7567 66.8422 28.4387 69.5306 28.4387Z" fill="#484953"/>
<path d="M75.5723 28.6644H78.3373V30.5709H78.3977C78.6084 29.9461 79.0136 29.4052 79.5539 29.0273C80.0942 28.6494 80.7414 28.4545 81.4005 28.471C82.92 28.471 83.9801 29.2529 84.3348 30.6273H84.3912C84.6389 29.969 85.0884 29.4058 85.6756 29.0185C86.2627 28.6312 86.9573 28.4395 87.66 28.471C89.7196 28.471 91.1021 29.8817 91.1021 32.0018V39.1843H88.2364V32.7353C88.2364 31.5261 87.6278 30.849 86.5194 30.849C85.4109 30.849 84.7177 31.6551 84.7177 32.8119V39.1843H81.9608V32.6305C81.9608 31.502 81.3199 30.8329 80.2598 30.8329C79.1998 30.8329 78.438 31.6592 78.438 32.8482V39.1843H75.5723V28.6644Z" fill="#484953"/>
<path d="M92.4082 36.1613C92.4082 34.2468 93.8794 33.1384 96.4993 32.9812L99.1474 32.824V32.1307C99.1474 31.1473 98.4622 30.579 97.382 30.579C96.3018 30.579 95.6367 31.107 95.4997 31.8849H92.8798C92.9886 29.8414 94.7258 28.4387 97.5109 28.4387C100.207 28.4387 101.945 29.8333 101.945 31.9534V39.1843H99.1796V37.572H99.1191C98.7892 38.1291 98.3162 38.5877 97.7492 38.9003C97.1822 39.2129 96.5419 39.368 95.8947 39.3495C93.9277 39.3495 92.4082 38.0557 92.4082 36.1613ZM99.1474 35.327V34.5612L96.9305 34.6982C95.8624 34.7788 95.2538 35.2585 95.2538 36.0041C95.2538 36.7498 95.9027 37.2778 96.866 37.2778C98.1196 37.2778 99.1474 36.4636 99.1474 35.327Z" fill="#484953"/>
<path d="M103.791 28.6644H106.56V30.5386H106.616C107.176 29.2368 108.285 28.4709 109.901 28.4709C112.239 28.4709 113.553 29.9421 113.553 32.4048V39.1843H110.687V33.0013C110.687 31.6269 110.038 30.845 108.756 30.845C107.474 30.845 106.656 31.7841 106.656 33.1505V39.1964H103.791V28.6644Z" fill="#484953"/>
</svg>
