<svg xmlns="http://www.w3.org/2000/svg" xmlns:xlink="http://www.w3.org/1999/xlink" viewBox="0 0 270.89 108.99"><defs><style>.cls-1{fill:url(#linear-gradient);}</style><linearGradient id="linear-gradient" x1="154.34" y1="-112.82" x2="-96.78" y2="191.69" gradientUnits="userSpaceOnUse"><stop offset="0" stop-color="#00d2ff"/><stop offset="1" stop-color="#3a7bd5"/></linearGradient></defs><g id="Layer_2" data-name="Layer 2"><g id="Layer_1-2" data-name="Layer 1"><path class="cls-1" d="M62.82,44.84l-13.69,3L57.56,0,21.44,7.86A18.47,18.47,0,0,0,7.19,22.7L0,63.45,34.64,55.9l-1.17.66L18.47,65a18.45,18.45,0,0,0-9.15,12.9L3.84,109Z"/><path d="M85.62,37.8a4.48,4.48,0,0,0,4.67,4.73c3.07,0,4.72-1.9,4.72-5.43V13h7.35V37.15c0,7.47-4.47,11.73-12,11.73-7.18,0-11.88-4.36-11.88-11.08Z"/><path d="M106.35,40.65c0-4.75,3.65-7.49,10.14-7.88l6.58-.39V30.65c0-2.44-1.71-3.85-4.38-3.85S114.35,28.12,114,30h-6.5c.27-5.06,4.58-8.54,11.49-8.54,6.7,0,11.05,3.45,11.05,8.71V48.15h-6.86v-4H123a9,9,0,0,1-8,4.4C110.12,48.56,106.35,45.35,106.35,40.65Zm16.72-2.07v-1.9l-5.5.35c-2.66.19-4.17,1.38-4.17,3.23s1.61,3.17,4,3.17C120.51,43.43,123.07,41.41,123.07,38.58Z"/><path d="M151.48,31.77c-.41-2.75-2.24-4.7-5.16-4.7-3.51,0-5.7,3-5.7,8s2.19,8.05,5.72,8.05a4.91,4.91,0,0,0,5.14-4.55h6.62c-.37,6.16-5,10.13-11.83,10.13-7.86,0-12.85-5.11-12.85-13.63,0-8.37,5-13.58,12.8-13.58,7.06,0,11.54,4.35,11.86,10.27Z"/><path d="M177.63,22.06h8.05l-10,11.19,10.44,14.9H178l-7.47-10.61-1.85,2v8.62h-7.11V13h7.11V32.52h.1Z"/><path d="M101.76,92.85H78.49V57.72h23.27v6.06H85.84v8.47h15V77.9h-15v8.86h15.92Z"/><path d="M104.89,85.35c0-4.75,3.65-7.5,10.15-7.89l6.57-.39V75.35c0-2.44-1.7-3.85-4.38-3.85s-4.33,1.31-4.67,3.24h-6.5c.27-5.07,4.58-8.55,11.49-8.55,6.69,0,11,3.46,11,8.72V92.85h-6.86v-4h-.15a9,9,0,0,1-8,4.41C108.67,93.26,104.89,90.05,104.89,85.35Zm16.72-2.07v-1.9l-5.5.34c-2.65.2-4.16,1.39-4.16,3.24s1.61,3.16,4,3.16C119.06,88.12,121.61,86.1,121.61,83.28Z"/><path d="M133.13,66.75H140v4.7h.15c.93-3.31,3.14-5.11,6.21-5.11a7.09,7.09,0,0,1,2,.27v6.25a7.44,7.44,0,0,0-2.58-.41c-3.51,0-5.55,2.14-5.55,5.82V92.85h-7.11Z"/><path d="M161.67,66.19c6.54,0,10.8,3.31,10.9,8.38H166c-.14-2.1-1.82-3.39-4.45-3.39-2.46,0-4.07,1.12-4.07,2.8,0,1.29,1.12,2.17,3.41,2.7l5,1.08c5.23,1.16,7.35,3.23,7.35,7.13,0,5.13-4.72,8.52-11.61,8.52S150.4,90.05,150,85h6.93c.34,2.19,2.07,3.46,4.9,3.46s4.33-1.07,4.33-2.78c0-1.31-.88-2-3.21-2.6L158.14,82c-4.94-1.12-7.48-3.7-7.48-7.55C150.66,69.46,155,66.19,161.67,66.19Z"/><path d="M176.66,66.75h6.86v4.73h.15a7.66,7.66,0,0,1,7.45-5.21c3.77,0,6.4,1.94,7.28,5.35h.14a8.27,8.27,0,0,1,8.11-5.35c5.11,0,8.54,3.5,8.54,8.76V92.85h-7.11v-16c0-3-1.51-4.68-4.26-4.68s-4.47,2-4.47,4.87V92.85h-6.84V76.59c0-2.8-1.59-4.46-4.22-4.46s-4.52,2.05-4.52,5V92.85h-7.11Z"/><path d="M218.43,85.35c0-4.75,3.65-7.5,10.15-7.89l6.57-.39V75.35c0-2.44-1.7-3.85-4.38-3.85s-4.33,1.31-4.67,3.24h-6.5c.27-5.07,4.58-8.55,11.49-8.55,6.69,0,11,3.46,11,8.72V92.85h-6.86v-4h-.15a9,9,0,0,1-8,4.41C222.2,93.26,218.43,90.05,218.43,85.35Zm16.72-2.07v-1.9l-5.5.34c-2.65.2-4.16,1.39-4.16,3.24s1.61,3.16,4,3.16C232.6,88.12,235.15,86.1,235.15,83.28Z"/><path d="M246.67,66.75h6.87V71.4h.14c1.39-3.23,4.14-5.13,8.15-5.13,5.8,0,9.06,3.65,9.06,9.76V92.85h-7.11V77.51c0-3.41-1.61-5.35-4.79-5.35s-5.21,2.33-5.21,5.72v15h-7.11Z"/></g></g></svg>