<svg width="76" height="32" viewBox="0 0 76 32" fill="none" xmlns="http://www.w3.org/2000/svg">
<g clip-path="url(#clip0_810_443)">
<path d="M0.0995092 18.2156L9.98416 16.0612L10.0405 16.209L9.7027 16.3995L9.70263 16.3996L5.37184 18.8364L5.37173 18.8365C4.69319 19.2168 4.1077 19.7433 3.65767 20.3778C3.20763 21.0122 2.90431 21.7388 2.76964 22.505L2.76963 22.505L1.23494 31.2146L17.9069 13.0785L14.2019 13.8904L14.0852 13.916L14.1059 13.7984L16.5191 0.103519L6.20717 2.34748L0.0995092 18.2156ZM0.0995092 18.2156L2.15466 6.56779L2.15467 6.56777C2.33545 5.54172 2.81728 4.59261 3.53889 3.84112C4.26049 3.08965 5.18926 2.56973 6.20712 2.34749L0.0995092 18.2156Z" fill="url(#paint0_linear_810_443)"/>
<path d="M0.0995092 18.2156L9.98416 16.0612L10.0405 16.209L9.7027 16.3995L9.70263 16.3996L5.37184 18.8364L5.37173 18.8365C4.69319 19.2168 4.1077 19.7433 3.65767 20.3778C3.20763 21.0122 2.90431 21.7388 2.76964 22.505L2.76963 22.505L1.23494 31.2146L17.9069 13.0785L14.2019 13.8904L14.0852 13.916L14.1059 13.7984L16.5191 0.103519L6.20717 2.34748L0.0995092 18.2156ZM0.0995092 18.2156L2.15466 6.56779L2.15467 6.56777C2.33545 5.54172 2.81728 4.59261 3.53889 3.84112C4.26049 3.08965 5.18926 2.56973 6.20712 2.34749L0.0995092 18.2156Z" stroke="url(#paint1_linear_810_443)" stroke-width="0.16" style="mix-blend-mode:soft-light"/>
<path d="M25.9185 11.3309C25.909 11.4989 25.9348 11.6671 25.9943 11.8246C26.0537 11.982 26.1455 12.1253 26.2638 12.245C26.3821 12.3648 26.5241 12.4585 26.6808 12.5199C26.8375 12.5814 27.0053 12.6093 27.1734 12.6019C27.9983 12.6019 28.4417 12.0913 28.4417 11.1428V4.66699H30.4167V11.1563C30.4167 13.1635 29.2156 14.3082 27.1922 14.3082C25.2629 14.3082 24 13.1366 24 11.3309H25.9185Z" fill="#484953"/>
<path d="M31.4902 12.0964C31.4902 10.8201 32.471 10.0838 34.2149 9.97901L35.983 9.87421V9.40934C35.983 8.75368 35.5235 8.37481 34.8061 8.37481C34.0886 8.37481 33.6399 8.72954 33.5458 9.23468H31.7992C31.8718 7.87501 33.0299 6.93994 34.8867 6.93994C36.687 6.93994 37.8559 7.86694 37.8559 9.28034V14.1117H36.0126V13.0369H35.9642C35.7439 13.4077 35.4284 13.7129 35.0504 13.9209C34.6724 14.1287 34.2458 14.2317 33.8146 14.2192C32.5032 14.2219 31.4902 13.3593 31.4902 12.0964ZM35.983 11.5402V11.0296L34.5051 11.1237C33.7904 11.1747 33.3846 11.4945 33.3846 11.9916C33.3846 12.4887 33.8172 12.8434 34.4594 12.8434C35.2951 12.8434 35.983 12.3006 35.983 11.5402Z" fill="#484953"/>
<path d="M43.6165 9.71002C43.5063 8.97109 43.0146 8.44709 42.23 8.44709C41.2869 8.44709 40.6984 9.25322 40.6984 10.5968C40.6984 11.9403 41.2869 12.7598 42.2354 12.7598C42.5797 12.7769 42.917 12.6585 43.1751 12.43C43.4333 12.2015 43.5917 11.8811 43.6165 11.5372H45.3954C45.2959 13.1925 44.0519 14.2592 42.2166 14.2592C40.1045 14.2592 38.7637 12.8862 38.7637 10.5968C38.7637 8.34769 40.1072 6.94775 42.2031 6.94775C44.1002 6.94775 45.304 8.11662 45.39 9.70735L43.6165 9.71002Z" fill="#484953"/>
<path d="M50.6416 7.10146H52.8047L50.1176 10.1083L52.9229 14.112H50.741L48.7338 11.2611L48.2367 11.7985V14.1147H46.3262V4.66699H48.2367V9.91213H48.2636L50.6416 7.10146Z" fill="#484953"/>
<path d="M30.2566 26.1228H24.0039V16.6831H30.2566V18.3115H25.9788V20.5874H30.0094V22.1056H25.9788V24.4864H30.2566V26.1228Z" fill="#484953"/>
<path d="M31.0977 24.1074C31.0977 22.8311 32.0784 22.0921 33.825 21.9873L35.5904 21.8825V21.4203C35.5904 20.7647 35.1336 20.3859 34.4135 20.3859C33.6933 20.3859 33.25 20.7379 33.1586 21.2565H31.4121C31.4846 19.8941 32.6427 18.959 34.4995 18.959C36.2971 18.959 37.4553 19.8887 37.4553 21.3021V26.1227H35.6119V25.0478H35.5716C35.3517 25.4192 35.0363 25.725 34.6583 25.9334C34.2803 26.1418 33.8534 26.2452 33.4219 26.2328C32.1133 26.2328 31.0977 25.3703 31.0977 24.1074ZM35.5904 23.5512V23.0407L34.1125 23.132C33.4005 23.1857 32.9947 23.5055 32.9947 24.0026C32.9947 24.4997 33.4273 24.8517 34.0695 24.8517C34.9052 24.8517 35.5904 24.3089 35.5904 23.5512Z" fill="#484953"/>
<path d="M38.6863 19.1097H40.5323V20.3727H40.5726C40.8225 19.4833 41.4163 18.9996 42.2413 18.9996C42.4229 18.998 42.6039 19.0225 42.7787 19.0721V20.7515C42.5559 20.6743 42.3212 20.6369 42.0854 20.6414C41.1423 20.6414 40.5941 21.2164 40.5941 22.2053V26.123H38.6836L38.6863 19.1097Z" fill="#484953"/>
<path d="M46.3546 18.959C48.1119 18.959 49.2566 19.8484 49.2835 21.2108H47.5181C47.4804 20.6465 47.029 20.2999 46.3223 20.2999C45.6613 20.2999 45.2287 20.6008 45.2287 21.0523C45.2287 21.3989 45.5296 21.6353 46.145 21.7777L47.4885 22.0679C48.8938 22.3797 49.4635 22.9359 49.4635 23.9838C49.4635 25.3622 48.1952 26.2732 46.3438 26.2732C44.4924 26.2732 43.3262 25.3703 43.2188 24.0134H45.0809C45.1722 24.6019 45.6371 24.9431 46.3976 24.9431C47.158 24.9431 47.561 24.6556 47.561 24.1961C47.561 23.8441 47.3246 23.6587 46.6985 23.4975L45.406 23.2073C44.0786 22.9063 43.3961 22.2131 43.3961 21.1785C43.3961 19.8377 44.5623 18.959 46.3546 18.959Z" fill="#484953"/>
<path d="M50.3809 19.1102H52.2242V20.3812H52.2645C52.4049 19.9646 52.6751 19.604 53.0353 19.3521C53.3955 19.1002 53.8269 18.9702 54.2663 18.9812C55.2793 18.9812 55.9861 19.5025 56.2225 20.4188H56.2601C56.4253 19.9799 56.7249 19.6044 57.1164 19.3462C57.5078 19.088 57.9709 18.9602 58.4393 18.9812C59.8124 18.9812 60.7341 19.9217 60.7341 21.3351V26.1234H58.8236V21.8241C58.8236 21.018 58.4179 20.5666 57.6789 20.5666C56.9399 20.5666 56.4778 21.104 56.4778 21.8752V26.1234H54.6399V21.7542C54.6399 21.0019 54.2126 20.5558 53.5059 20.5558C52.7992 20.5558 52.2913 21.1067 52.2913 21.8994V26.1234H50.3809V19.1102Z" fill="#484953"/>
<path d="M61.6055 24.1074C61.6055 22.8311 62.5863 22.0921 64.3329 21.9873L66.0983 21.8825V21.4203C66.0983 20.7647 65.6415 20.3859 64.9213 20.3859C64.2012 20.3859 63.7578 20.7379 63.6665 21.2565H61.9199C61.9924 19.8941 63.1505 18.959 65.0073 18.959C66.8047 18.959 67.9633 19.8887 67.9633 21.3021V26.1227H66.1197V25.0478H66.0794C65.8595 25.4192 65.5441 25.725 65.1661 25.9334C64.7881 26.1418 64.3613 26.2452 63.9298 26.2328C62.6185 26.2328 61.6055 25.3703 61.6055 24.1074ZM66.0983 23.5512V23.0407L64.6203 23.132C63.9083 23.1857 63.5025 23.5055 63.5025 24.0026C63.5025 24.4997 63.9351 24.8517 64.5773 24.8517C65.4131 24.8517 66.0983 24.3089 66.0983 23.5512Z" fill="#484953"/>
<path d="M69.1953 19.1095H71.0413V20.3589H71.0786C71.452 19.4911 72.1913 18.9805 73.2686 18.9805C74.8273 18.9805 75.7033 19.9613 75.7033 21.6031V26.1227H73.7926V22.0007C73.7926 21.0845 73.36 20.5632 72.5053 20.5632C71.6506 20.5632 71.1053 21.1893 71.1053 22.1002V26.1308H69.1953V19.1095Z" fill="#484953"/>
</g>
<defs>
<linearGradient id="paint0_linear_810_443" x1="9.06863" y1="0" x2="9.06863" y2="31.4702" gradientUnits="userSpaceOnUse">
<stop stop-color="#53A2FE"/>
<stop offset="1" stop-color="#3491FE"/>
</linearGradient>
<linearGradient id="paint1_linear_810_443" x1="9.06863" y1="0" x2="9.06863" y2="31.4702" gradientUnits="userSpaceOnUse">
<stop stop-color="white" stop-opacity="0"/>
<stop offset="1" stop-color="white"/>
</linearGradient>
<clipPath id="clip0_810_443">
<rect width="76" height="32" fill="white"/>
</clipPath>
</defs>
</svg>
