<svg width="19" height="20" viewBox="0 0 19 20" fill="none" xmlns="http://www.w3.org/2000/svg">
<path d="M4.14496 19.0451V6.74961H0.231453V19.0451H4.14496ZM2.18902 5.06994C3.55329 5.06994 4.40249 4.12715 4.40249 2.9461C4.37804 1.73953 3.55492 0.822266 2.2151 0.822266C0.875282 0.822266 0 1.74123 0 2.9461C0 4.12715 0.849203 5.06994 2.16294 5.06994H2.18902ZM10.1888 19.0451V12.1783C10.1888 11.8108 10.2149 11.4432 10.3192 11.1811C10.6012 10.4476 11.245 9.68691 12.3273 9.68691C13.7437 9.68691 14.3093 10.8135 14.3093 12.4676V19.0451H18.2228V11.9928C18.2228 8.21486 16.293 6.45861 13.7176 6.45861C11.6411 6.45861 10.7104 7.64986 10.1888 8.48885V8.53139H10.1627C10.1714 8.51719 10.1801 8.50301 10.1888 8.48885V6.74961H6.27693C6.32583 7.90343 6.27693 19.0451 6.27693 19.0451H10.1888Z" fill="#6D7082"/>
</svg>
