<svg xmlns="http://www.w3.org/2000/svg" viewBox="0 0 20 16.25"><g id="Layer_2" data-name="Layer 2"><g id="Social"><path id="twitter" d="M6.29,16.25A11.59,11.59,0,0,0,18,4.58c0-.18,0-.36,0-.53A8.3,8.3,0,0,0,20,1.92a8.36,8.36,0,0,1-2.36.65A4.16,4.16,0,0,0,19.45.3a8.19,8.19,0,0,1-2.61,1A4.11,4.11,0,0,0,9.85,5,11.7,11.7,0,0,1,1.39.75,4.11,4.11,0,0,0,2.66,6.23,4.06,4.06,0,0,1,.8,5.71v0a4.11,4.11,0,0,0,3.29,4,4.13,4.13,0,0,1-1.85.07,4.12,4.12,0,0,0,3.83,2.85A8.25,8.25,0,0,1,1,14.47a7.93,7.93,0,0,1-1-.06,11.69,11.69,0,0,0,6.29,1.84"/></g></g></svg>