<svg width="844" height="528" viewBox="0 0 844 528" fill="none" xmlns="http://www.w3.org/2000/svg">
<path d="M339.944 236.584C386.54 214.358 410.864 180.728 410.864 128.381C410.864 25.1498 333.79 0 244.848 0H0V518.203H251.735C346.099 518.203 434.748 473.021 434.748 367.743C434.748 302.675 403.831 254.569 339.944 236.584ZM114.145 88.463H221.257C262.431 88.463 299.503 100.014 299.503 147.682C299.503 191.694 270.637 209.387 229.902 209.387H114.145V88.463ZM236.203 430.179H114.145V287.468H238.547C288.806 287.468 320.603 308.378 320.603 361.456C320.603 413.802 282.652 430.179 236.203 430.179ZM761.505 78.2276H550.944V27.1969H761.505V78.2276ZM844 336.013C844 225.032 778.942 132.475 660.987 132.475C546.402 132.475 468.596 218.452 468.596 331.042C468.596 447.871 542.299 528 660.987 528C750.808 528 808.98 487.643 836.967 401.812H745.826C736.009 433.834 695.567 450.796 664.21 450.796C603.694 450.796 571.898 415.411 571.898 355.314H843.121C843.56 349.173 844 342.593 844 336.013ZM572.044 290.393C575.415 241.117 608.237 210.264 657.763 210.264C709.634 210.264 735.716 240.678 740.112 290.393H572.044Z" fill="white"/>
</svg>
