<svg width="576" height="362" viewBox="0 0 576 362" fill="none" xmlns="http://www.w3.org/2000/svg">
<path d="M232 162.2C263.8 147 280.4 124 280.4 88.1999C280.4 17.5999 227.8 0.399902 167.1 0.399902H0V354.8H171.8C236.2 354.8 296.7 323.9 296.7 251.9C296.7 207.4 275.6 174.5 232 162.2V162.2ZM77.9 60.8999H151C179.1 60.8999 204.4 68.7999 204.4 101.4C204.4 131.5 184.7 143.6 156.9 143.6H77.9V60.8999V60.8999ZM161.2 294.6H77.9V197H162.8C197.1 197 218.8 211.3 218.8 247.6C218.8 283.4 192.9 294.6 161.2 294.6V294.6ZM519.7 53.8999H376V18.9999H519.7V53.8999V53.8999ZM576 230.2C576 154.3 531.6 90.9999 451.1 90.9999C372.9 90.9999 319.8 149.8 319.8 226.8C319.8 306.7 370.1 361.5 451.1 361.5C512.4 361.5 552.1 333.9 571.2 275.2H509C502.3 297.1 474.7 308.7 453.3 308.7C412 308.7 390.3 284.5 390.3 243.4H575.4C575.7 239.2 576 234.7 576 230.2ZM390.4 199C392.7 165.3 415.1 144.2 448.9 144.2C484.3 144.2 502.1 165 505.1 199H390.4Z" fill="#0057FF"/>
</svg>
